PathFileType	4	(X/Y/Z)	C:/Users/opensim2020/Desktop/walking_exp_matlab/subject03_walking11_straight_01.trc	
DataRate	CameraRate	NumFrames	NumMarkers	Units	OrigDataRate	OrigDataStartFrame	OrigNumFrames	
100.00	100.00	6	46	mm	100.00	1031	454	
Frame#	Time	LFHD			RFHD			LBHD			RBHD			C7			T10			CLAV			STRN			RBAK			LSHO			LUPA			LELB			LFRM			LWRA			LWRB			LFIN			RSHO			RUPA			RELB			RFRM			RWRA			RWRB			RFIN			LASI			RASI			LPSI			RPSI			LTHI			LKNE			LTIB			LANK			LHEE			LTOE			RTHI			RKNE			RTIB			RANK			RHEE			RTOE			*39			*40			*41			*42			*43			*44			*45			
		X1	Y1	Z1	X2	Y2	Z2	X3	Y3	Z3	X4	Y4	Z4	X5	Y5	Z5	X6	Y6	Z6	X7	Y7	Z7	X8	Y8	Z8	X9	Y9	Z9	X10	Y10	Z10	X11	Y11	Z11	X12	Y12	Z12	X13	Y13	Z13	X14	Y14	Z14	X15	Y15	Z15	X16	Y16	Z16	X17	Y17	Z17	X18	Y18	Z18	X19	Y19	Z19	X20	Y20	Z20	X21	Y21	Z21	X22	Y22	Z22	X23	Y23	Z23	X24	Y24	Z24	X25	Y25	Z25	X26	Y26	Z26	X27	Y27	Z27	X28	Y28	Z28	X29	Y29	Z29	X30	Y30	Z30	X31	Y31	Z31	X32	Y32	Z32	X33	Y33	Z33	X34	Y34	Z34	X35	Y35	Z35	X36	Y36	Z36	X37	Y37	Z37	X38	Y38	Z38	X39	Y39	Z39	X40	Y40	Z40	X41	Y41	Z41	X42	Y42	Z42	X43	Y43	Z43	X44	Y44	Z44	X45	Y45	Z45	X46	Y46	Z46	

398	3.970	1353.34912	1122.89270	1620.92468	1486.86316	1126.72803	1631.68860	1363.41565	993.84711	1582.19910	1493.50720	1001.92804	1591.93567	1421.92261	961.51929	1424.77234	1423.87024	927.78229	1109.45166	1425.62524	1081.55566	1346.63159	1422.08191	1125.18738	1182.60046	1516.80920	903.25647	1249.26758	1269.69238	1040.80701	1382.38159	1195.46936	1060.45178	1190.19568	1181.69897	1091.83508	1071.63428	1184.82166	1148.67371	954.60614	1217.48816	1193.39148	845.17029	1164.53503	1175.55139	845.46594	1175.71082	1212.33215	769.90735	1584.12085	1031.84692	1372.46619	1657.87122	1030.32764	1149.88379	1670.75916	1045.91479	1038.04175	1673.04480	1063.66345	902.05048	1636.10254	1092.70898	806.86932	1681.53357	1063.13220	801.68811	1670.81750	1087.18665	730.99377	1306.73474	1097.20435	948.40912	1545.99683	1098.76965	950.31573	1359.58484	935.71680	968.81531	1507.96716	936.56006	972.44818	1281.10352	1040.10315	644.17883	1325.85364	1043.67371	467.46426	1331.70862	988.06940	279.47034	1381.16895	968.81378	71.58325	1419.94250	930.07947	37.54265	1395.57715	1121.76526	35.47984	1600.48206	1105.74084	657.43439	1577.89075	1167.17139	487.88342	1587.24438	1080.11646	315.93277	1551.06201	990.42834	117.50176	1498.99646	939.03217	94.87954	1539.47412	1110.82019	46.12589	1405.12537	1044.14490	1685.75183																		 
399	3.980	1353.42920	1128.64429	1620.65796	1486.53809	1132.23376	1631.14551	1363.50037	999.73083	1581.74316	1493.53027	1007.81329	1591.34082	1421.72876	967.56287	1424.41870	1424.02490	934.49426	1108.70068	1425.35010	1087.45288	1346.09375	1421.68237	1131.15503	1182.16602	1516.26697	909.14728	1248.75916	1269.62256	1047.02686	1382.26660	1194.72852	1067.57935	1190.40247	1180.76196	1100.11914	1072.40747	1183.65820	1159.33533	956.36066	1216.11987	1206.20044	847.98059	1163.51270	1187.56152	847.54688	1174.56140	1226.02502	772.88348	1583.99805	1037.61963	1371.81299	1657.70483	1035.29602	1149.23694	1670.52637	1050.39221	1037.34143	1672.70618	1067.83862	901.25995	1635.53772	1096.35779	806.05615	1680.99585	1066.96643	800.90356	1670.27771	1090.82800	730.26288	1306.18787	1102.70190	948.00427	1545.32239	1105.05493	950.23608	1359.77771	941.74152	968.37555	1507.78748	942.58032	971.96155	1281.04260	1044.46411	643.81165	1325.64319	1046.80005	467.24545	1331.64966	989.72473	279.44952	1381.31091	968.93121	71.69256	1420.27637	930.39990	37.55278	1395.52490	1121.79590	35.40566	1600.00159	1113.34680	657.70618	1576.72266	1175.85181	488.36942	1585.90808	1095.03784	313.18625	1549.75012	1013.28906	111.36162	1498.04504	962.47528	87.02698	1537.06677	1136.57800	45.21932	1405.38306	1049.78918	1685.34436																		 
400	3.990	1353.74780	1134.64441	1620.57776	1487.11682	1138.36157	1630.87170	1363.63525	1005.62939	1581.21265	1493.68213	1013.65527	1590.67017	1421.56824	973.56970	1423.88281	1423.04102	939.53326	1109.15430	1425.29346	1093.62793	1345.72681	1421.27563	1137.08936	1181.60596	1515.58167	914.99402	1248.06702	1269.44519	1053.23181	1382.09082	1194.13611	1074.65100	1190.67529	1179.80786	1108.32959	1073.03955	1182.50330	1169.25061	958.05017	1214.85449	1218.75684	850.79596	1162.58435	1199.35522	849.61255	1173.43945	1239.46826	775.87244	1583.85010	1043.44495	1371.06580	1657.57605	1040.27954	1148.55688	1670.47839	1055.17468	1036.67126	1672.40784	1071.88318	900.62506	1634.98450	1100.17346	805.23523	1680.59766	1070.97058	800.10474	1669.53809	1094.35718	729.25415	1305.66614	1108.50793	947.66345	1544.80566	1111.34998	949.98389	1359.44141	947.21570	967.80933	1507.71228	948.69421	971.46173	1280.97461	1049.12952	643.45526	1325.47205	1049.62756	466.88239	1331.60425	991.28998	279.53250	1381.34265	969.11078	71.83740	1420.40137	930.28589	37.80370	1395.64453	1122.06311	35.29409	1599.79773	1121.08325	657.77393	1575.65759	1184.31726	488.63617	1585.01477	1109.81360	310.72601	1548.45752	1036.51001	105.70746	1496.87756	986.81805	79.43707	1534.80762	1162.27551	44.71349	1405.68579	1055.50195	1684.96216																		 
401	4.000	1353.85156	1140.39087	1620.24744	1486.90247	1143.84705	1630.27051	1363.81189	1011.52527	1580.61572	1493.91907	1019.58960	1589.97534	1421.39148	979.71381	1423.37024	1422.68542	945.47888	1108.40149	1425.07361	1099.62415	1345.03613	1420.85339	1143.06641	1180.99890	1515.02039	920.95587	1247.49158	1269.39880	1059.46960	1381.81934	1193.61536	1081.60742	1190.80371	1178.92566	1116.39807	1073.50732	1181.48560	1179.16724	959.65631	1213.81836	1230.97461	853.58398	1161.86914	1210.89441	851.58459	1172.56421	1252.67749	778.88232	1583.72864	1049.22925	1370.31018	1657.41675	1045.23438	1147.75317	1670.15955	1059.54053	1035.72937	1672.07361	1076.37878	899.65692	1634.46313	1104.10461	804.37079	1680.18713	1075.02100	799.23730	1668.95544	1098.20923	728.34906	1304.78955	1113.39490	946.90442	1544.30957	1117.63171	949.56897	1359.58765	953.11749	967.59930	1507.75012	954.81030	970.97589	1281.04358	1053.61035	643.18518	1325.38184	1052.57056	466.62305	1331.60217	992.70990	279.56946	1381.40649	969.20959	71.96844	1420.73352	930.15533	37.93983	1395.37537	1121.92749	35.37652	1599.64087	1128.45032	657.51794	1574.42810	1192.53931	488.71600	1584.03638	1124.58521	308.30374	1546.77393	1059.42773	100.11887	1495.30615	1011.41992	72.18097	1532.60730	1187.64954	44.40430	1405.76001	1061.11804	1684.27710																		 
402	4.010	1354.07813	1146.21082	1619.94495	1487.61719	1150.00952	1629.96301	1363.98474	1017.54211	1580.07666	1494.18701	1025.54944	1589.18152	1421.24524	985.85870	1422.82813	1422.96387	951.54156	1108.00769	1425.04590	1105.82349	1344.51855	1420.53650	1149.07715	1180.37231	1514.49182	926.85095	1246.77759	1269.26953	1065.71838	1381.41797	1193.25183	1088.64233	1191.03345	1178.20703	1124.49158	1074.08923	1180.61353	1188.86780	961.16162	1212.89966	1242.83521	856.23401	1161.26514	1222.24597	853.55194	1171.83533	1265.60767	781.82544	1583.66858	1055.17224	1369.45313	1657.31689	1050.21460	1146.95557	1669.99304	1064.20703	1034.84900	1671.76489	1080.52246	898.90082	1633.99512	1108.18994	803.41675	1679.86438	1079.15955	798.33844	1668.40552	1102.24219	727.39984	1304.25574	1118.87073	946.18512	1543.86475	1123.89795	949.02399	1359.52661	958.85516	966.79230	1507.75354	960.93719	970.25031	1281.11279	1058.07056	642.88733	1325.19458	1055.37354	466.13004	1331.51624	994.21692	279.60672	1381.39294	969.29700	72.07041	1420.89124	929.85626	38.30689	1395.36255	1121.95959	35.37786	1599.53577	1135.39722	657.00995	1573.66663	1200.40918	488.70370	1582.94873	1139.13574	305.99728	1545.41333	1082.57544	95.44135	1493.93616	1035.57825	65.79952	1530.63391	1212.85571	44.81094	1406.40991	1066.87451	1683.83887																		 
403	4.020	1354.41675	1152.10693	1619.59338	1487.54968	1155.62720	1629.25452	1364.30151	1023.40973	1579.43408	1494.41931	1031.53247	1588.31067	1421.24841	992.12958	1422.26794	1423.17102	957.80475	1107.26465	1425.02295	1111.95874	1343.84363	1420.23145	1155.13562	1179.65576	1514.25098	932.82605	1246.28186	1269.25659	1071.98047	1381.08142	1192.76416	1095.35266	1190.90857	1177.62231	1132.23413	1074.45129	1179.84009	1198.34851	962.58716	1212.27051	1254.37708	858.96515	1160.78235	1233.35278	855.45880	1171.26978	1278.27722	784.79504	1583.63416	1061.18103	1368.55151	1657.30359	1055.27490	1146.11035	1669.91541	1068.98279	1033.95996	1671.48462	1084.93384	897.94025	1633.60120	1112.40820	802.46881	1679.38074	1083.44592	797.38556	1667.99451	1106.30945	726.45038	1303.93152	1124.80688	945.66058	1543.58423	1130.13806	948.40063	1359.64539	964.74072	966.20770	1507.80762	967.08307	969.55359	1281.09338	1062.54529	642.51086	1325.12476	1058.35400	465.94720	1331.51379	995.60486	279.58066	1381.44641	969.43573	72.31123	1420.93921	929.82343	38.47216	1395.34143	1121.94653	35.36479	1599.40527	1141.91077	656.29578	1572.70898	1208.00500	488.48532	1581.92834	1153.37939	304.04288	1544.18604	1105.50928	91.39536	1492.61865	1059.54492	60.03535	1529.11511	1237.57214	45.31027	1406.68408	1072.57349	1683.15637																		 
